<svg xmlns="http://www.w3.org/2000/svg" xmlns:xlink="http://www.w3.org/1999/xlink" viewBox="0 0 606.61 139.08"><defs><style>.cls-1{fill:#233e60;}.cls-2{fill:url(#linear-gradient);}.cls-3{fill:url(#linear-gradient-2);}.cls-4{fill:url(#linear-gradient-3);}.cls-5{fill:url(#linear-gradient-4);}.cls-6{fill:#284aff;}</style><linearGradient id="linear-gradient" x1="4082.94" y1="-31.45" x2="4083.94" y2="-31.45" gradientTransform="matrix(0, -78.65, -78.65, 0, -2423.56, 321210.3)" gradientUnits="userSpaceOnUse"><stop offset="0" stop-color="#8ffeff"/><stop offset="0.19" stop-color="#79d8ff"/><stop offset="0.45" stop-color="#5ea9ff"/><stop offset="0.68" stop-color="#4a86ff"/><stop offset="0.87" stop-color="#3e71ff"/><stop offset="1" stop-color="#3a69ff"/></linearGradient><linearGradient id="linear-gradient-2" x1="4082.94" y1="-31.45" x2="4083.94" y2="-31.45" gradientTransform="matrix(0, -78.65, -78.65, 0, -2423.56, 321270.73)" xlink:href="#linear-gradient"/><linearGradient id="linear-gradient-3" x1="4082.94" y1="-31.45" x2="4083.94" y2="-31.45" gradientTransform="matrix(0, -78.65, -78.65, 0, -2456.9, 321241.45)" xlink:href="#linear-gradient"/><linearGradient id="linear-gradient-4" x1="4082.94" y1="-31.45" x2="4083.94" y2="-31.45" gradientTransform="matrix(0, -78.65, -78.65, 0, -2390.23, 321241.45)" xlink:href="#linear-gradient"/></defs><g id="Camada_2" data-name="Camada 2"><g id="Layer_1" data-name="Layer 1"><path class="cls-1" d="M192.06,36.61h13.6V99.55h-13.6V90.49q-7.68,10.71-22,10.7a29.54,29.54,0,0,1-22.16-9.63,32.76,32.76,0,0,1-9.19-23.48,32.72,32.72,0,0,1,9.19-23.54A29.63,29.63,0,0,1,170,35q14.35,0,22,10.58ZM157.94,82.5a20.56,20.56,0,0,0,28.46,0,19.7,19.7,0,0,0,5.66-14.42,19.68,19.68,0,0,0-5.66-14.41,20.53,20.53,0,0,0-28.46,0,19.68,19.68,0,0,0-5.66,14.41A19.7,19.7,0,0,0,157.94,82.5Z"/><path class="cls-1" d="M306.24,36.61V99.55h-13.6V49.7H271.75V99.55h-13.6V49.7h-21V99.55h-13.6V49.7H214V36.61h9.57V35.35q0-13,7.24-19.7T252,9.8V22.89q-14.85-1.38-14.85,12.46v1.26h21V34.09q0-25.55,28.45-25.55a64,64,0,0,1,14,1.63V22.64a93.84,93.84,0,0,0-14-1q-7.55,0-11.2,2.77t-3.65,9.69v2.52Z"/><path class="cls-1" d="M319.46,99.55V7.66h13.6V99.55Z"/><path class="cls-1" d="M359.18,24.59a8.52,8.52,0,0,1-12.22,0,8.58,8.58,0,0,1-.06-12.21,8.67,8.67,0,0,1,12.34,0,8.58,8.58,0,0,1-.06,12.21Zm-12.91,75V36.61h13.6V99.55Z"/><path class="cls-1" d="M422.94,36.61h13.59V99.55H422.94V90.49q-7.68,10.71-22,10.7a29.51,29.51,0,0,1-22.16-9.63,32.72,32.72,0,0,1-9.19-23.48q0-14,9.19-23.54A29.6,29.6,0,0,1,400.91,35q14.34,0,22,10.58ZM388.82,82.5a20.55,20.55,0,0,0,28.45,0,19.67,19.67,0,0,0,5.67-14.42,19.64,19.64,0,0,0-5.67-14.41,20.52,20.52,0,0,0-28.45,0,19.64,19.64,0,0,0-5.67,14.41A19.67,19.67,0,0,0,388.82,82.5Z"/><path class="cls-1" d="M485,49.7H469.39V79.92c0,2.6.58,4.46,1.76,5.6a7.91,7.91,0,0,0,5.22,1.89q3.47.18,8.63-.07V99.55q-15.62,1.89-22.41-2.7t-6.8-16.93V49.7H444.21V36.61h11.58V23l13.6-4V36.61H485Z"/><path class="cls-1" d="M503,73.87a17.28,17.28,0,0,0,6.92,11,22.27,22.27,0,0,0,13.22,3.84q10.83,0,16.24-7.81l11.21,6.55Q541.26,101.2,523,101.19q-15.37,0-24.8-9.38t-9.45-23.73q0-14.1,9.32-23.6T522,35q13.85,0,22.72,9.7a33.59,33.59,0,0,1,8.88,23.54,41.43,41.43,0,0,1-.51,5.66Zm-.13-11.07h37q-1.39-7.68-6.36-11.59a18.34,18.34,0,0,0-11.65-3.9,19.14,19.14,0,0,0-12.59,4.16A18.76,18.76,0,0,0,502.87,62.8Z"/><path class="cls-1" d="M572.74,53.9q0,3.1,3.49,4.91a51.06,51.06,0,0,0,8.37,3.3l10,3.09A17.32,17.32,0,0,1,603.17,71a16.62,16.62,0,0,1,3.44,10.76,16.71,16.71,0,0,1-7,14.23q-7,5.16-17.56,5.16a31.16,31.16,0,0,1-16-3.9,22.83,22.83,0,0,1-9.69-10.83l11.7-6.8q3.28,9.07,14,9.07t10.7-7c0-2-1.16-3.65-3.46-4.91a45.85,45.85,0,0,0-8.35-3.4l-10-3.08a17.84,17.84,0,0,1-8.58-5.67,15.52,15.52,0,0,1-3.47-10.39,17,17,0,0,1,6.61-14Q572.12,35,581.93,35a27.69,27.69,0,0,1,13.91,3.47,23.57,23.57,0,0,1,9.38,9.63l-11.45,6.42q-3.28-7.18-11.84-7.18A12,12,0,0,0,575.39,49,5.44,5.44,0,0,0,572.74,53.9Z"/><path class="cls-1" d="M192.06,36.61h13.6V99.55h-13.6V90.49q-7.68,10.71-22,10.7a29.54,29.54,0,0,1-22.16-9.63,32.76,32.76,0,0,1-9.19-23.48,32.72,32.72,0,0,1,9.19-23.54A29.63,29.63,0,0,1,170,35q14.35,0,22,10.58ZM157.94,82.5a20.56,20.56,0,0,0,28.46,0,19.7,19.7,0,0,0,5.66-14.42,19.68,19.68,0,0,0-5.66-14.41,20.53,20.53,0,0,0-28.46,0,19.68,19.68,0,0,0-5.66,14.41A19.7,19.7,0,0,0,157.94,82.5Z"/><path class="cls-1" d="M306.24,36.61V99.55h-13.6V49.7H271.75V99.55h-13.6V49.7h-21V99.55h-13.6V49.7H214V36.61h9.57V35.35q0-13,7.24-19.7T252,9.8V22.89q-14.85-1.38-14.85,12.46v1.26h21V34.09q0-25.55,28.45-25.55a64,64,0,0,1,14,1.63V22.64a93.84,93.84,0,0,0-14-1q-7.55,0-11.2,2.77t-3.65,9.69v2.52Z"/><path class="cls-1" d="M319.46,99.55V7.66h13.6V99.55Z"/><path class="cls-1" d="M359.18,24.59a8.52,8.52,0,0,1-12.22,0,8.58,8.58,0,0,1-.06-12.21,8.67,8.67,0,0,1,12.34,0,8.58,8.58,0,0,1-.06,12.21Zm-12.91,75V36.61h13.6V99.55Z"/><path class="cls-1" d="M422.94,36.61h13.59V99.55H422.94V90.49q-7.68,10.71-22,10.7a29.51,29.51,0,0,1-22.16-9.63,32.72,32.72,0,0,1-9.19-23.48q0-14,9.19-23.54A29.6,29.6,0,0,1,400.91,35q14.34,0,22,10.58ZM388.82,82.5a20.55,20.55,0,0,0,28.45,0,19.67,19.67,0,0,0,5.67-14.42,19.64,19.64,0,0,0-5.67-14.41,20.52,20.52,0,0,0-28.45,0,19.64,19.64,0,0,0-5.67,14.41A19.67,19.67,0,0,0,388.82,82.5Z"/><path class="cls-1" d="M485,49.7H469.39V79.92c0,2.6.58,4.46,1.76,5.6a7.91,7.91,0,0,0,5.22,1.89q3.47.18,8.63-.07V99.55q-15.62,1.89-22.41-2.7t-6.8-16.93V49.7H444.21V36.61h11.58V23l13.6-4V36.61H485Z"/><path class="cls-1" d="M503,73.87a17.28,17.28,0,0,0,6.92,11,22.27,22.27,0,0,0,13.22,3.84q10.83,0,16.24-7.81l11.21,6.55Q541.26,101.2,523,101.19q-15.37,0-24.8-9.38t-9.45-23.73q0-14.1,9.32-23.6T522,35q13.85,0,22.72,9.7a33.59,33.59,0,0,1,8.88,23.54,41.43,41.43,0,0,1-.51,5.66Zm-.13-11.07h37q-1.39-7.68-6.36-11.59a18.34,18.34,0,0,0-11.65-3.9,19.14,19.14,0,0,0-12.59,4.16A18.76,18.76,0,0,0,502.87,62.8Z"/><path class="cls-1" d="M572.74,53.9q0,3.1,3.49,4.91a51.06,51.06,0,0,0,8.37,3.3l10,3.09A17.32,17.32,0,0,1,603.17,71a16.62,16.62,0,0,1,3.44,10.76,16.71,16.71,0,0,1-7,14.23q-7,5.16-17.56,5.16a31.16,31.16,0,0,1-16-3.9,22.83,22.83,0,0,1-9.69-10.83l11.7-6.8q3.28,9.07,14,9.07t10.7-7c0-2-1.16-3.65-3.46-4.91a45.85,45.85,0,0,0-8.35-3.4l-10-3.08a17.84,17.84,0,0,1-8.58-5.67,15.52,15.52,0,0,1-3.47-10.39,17,17,0,0,1,6.61-14Q572.12,35,581.93,35a27.69,27.69,0,0,1,13.91,3.47,23.57,23.57,0,0,1,9.38,9.63l-11.45,6.42q-3.28-7.18-11.84-7.18A12,12,0,0,0,575.39,49,5.44,5.44,0,0,0,572.74,53.9Z"/><path class="cls-2" d="M50,78.65h0A16.71,16.71,0,0,1,33.33,62V16.67a16.67,16.67,0,1,1,33.33,0V62A16.71,16.71,0,0,1,50,78.65Z"/><path class="cls-3" d="M50,139.08h0a16.71,16.71,0,0,1-16.66-16.67V77.09a16.67,16.67,0,1,1,33.33,0v45.32A16.72,16.72,0,0,1,50,139.08Z"/><path class="cls-4" d="M16.67,109.8h0A16.72,16.72,0,0,1,0,93.13V47.81a16.67,16.67,0,0,1,33.33,0V93.13A16.71,16.71,0,0,1,16.67,109.8Z"/><path class="cls-5" d="M83.32,109.8h0A16.72,16.72,0,0,1,66.65,93.13V47.81a16.67,16.67,0,0,1,33.34,0V93.13A16.72,16.72,0,0,1,83.32,109.8Z"/><circle class="cls-6" cx="83.32" cy="47.81" r="16.67"/><circle class="cls-6" cx="16.67" cy="47.81" r="16.67"/><circle class="cls-6" cx="49.99" cy="77.09" r="16.67"/><circle class="cls-6" cx="49.99" cy="16.67" r="16.67"/></g></g></svg>