<svg xmlns="http://www.w3.org/2000/svg" xmlns:xlink="http://www.w3.org/1999/xlink" viewBox="0 0 606.61 138.3"><defs><style>.cls-1{fill:#233e60;}.cls-2{fill:#fff;}.cls-3{fill:url(#linear-gradient);}.cls-4{fill:url(#linear-gradient-2);}.cls-5{fill:url(#linear-gradient-3);}.cls-6{fill:url(#linear-gradient-4);}</style><linearGradient id="linear-gradient" x1="16.57" y1="108.45" x2="16.57" y2="31.71" gradientUnits="userSpaceOnUse"><stop offset="0" stop-color="#fdfeff" stop-opacity="0.3"/><stop offset="0.13" stop-color="#fdfeff" stop-opacity="0.32"/><stop offset="0.28" stop-color="#fdfeff" stop-opacity="0.38"/><stop offset="0.44" stop-color="#fdfeff" stop-opacity="0.47"/><stop offset="0.62" stop-color="#fefeff" stop-opacity="0.6"/><stop offset="0.8" stop-color="#feffff" stop-opacity="0.77"/><stop offset="0.98" stop-color="#fff" stop-opacity="0.98"/><stop offset="1" stop-color="#fff"/></linearGradient><linearGradient id="linear-gradient-2" x1="83.41" y1="108.45" x2="83.41" y2="31.71" xlink:href="#linear-gradient"/><linearGradient id="linear-gradient-3" x1="49.99" y1="93.14" x2="49.99" y2="0" xlink:href="#linear-gradient"/><linearGradient id="linear-gradient-4" x1="49.99" y1="138.3" x2="49.99" y2="60.09" xlink:href="#linear-gradient"/></defs><g id="Camada_2" data-name="Camada 2"><g id="Layer_1" data-name="Layer 1"><path class="cls-1" d="M192.06,36.22h13.6v63h-13.6V90.1q-7.68,10.71-22,10.71a29.51,29.51,0,0,1-22.16-9.64,32.75,32.75,0,0,1-9.19-23.47q0-14,9.19-23.55A29.65,29.65,0,0,1,170,34.59q14.35,0,22,10.57ZM157.94,82.11a20.53,20.53,0,0,0,28.46,0,19.68,19.68,0,0,0,5.66-14.41,19.68,19.68,0,0,0-5.66-14.42,20.53,20.53,0,0,0-28.46,0,19.68,19.68,0,0,0-5.66,14.42A19.68,19.68,0,0,0,157.94,82.11Z"/><path class="cls-1" d="M306.24,36.22v63h-13.6V49.32H271.75V99.17h-13.6V49.32h-21V99.17h-13.6V49.32H214V36.22h9.57V35q0-13,7.24-19.71T252,9.41V22.5Q237.13,21.12,237.13,35v1.25h21V33.71q0-25.56,28.45-25.56a64,64,0,0,1,14,1.64V22.25a93.84,93.84,0,0,0-14-1q-7.55,0-11.2,2.77t-3.65,9.7v2.51Z"/><path class="cls-1" d="M319.46,99.17V7.27h13.6v91.9Z"/><path class="cls-1" d="M359.18,24.2a8.52,8.52,0,0,1-12.22,0,8.33,8.33,0,0,1-2.58-6.1A8.46,8.46,0,0,1,346.9,12a8.67,8.67,0,0,1,12.34,0,8.58,8.58,0,0,1-.06,12.21Zm-12.91,75V36.22h13.6v63Z"/><path class="cls-1" d="M422.94,36.22h13.59v63H422.94V90.1q-7.68,10.71-22,10.71a29.48,29.48,0,0,1-22.16-9.64,32.71,32.71,0,0,1-9.19-23.47q0-14,9.19-23.55a29.62,29.62,0,0,1,22.16-9.56q14.34,0,22,10.57ZM388.82,82.11a20.52,20.52,0,0,0,28.45,0,19.64,19.64,0,0,0,5.67-14.41,19.65,19.65,0,0,0-5.67-14.42,20.52,20.52,0,0,0-28.45,0,19.65,19.65,0,0,0-5.67,14.42A19.64,19.64,0,0,0,388.82,82.11Z"/><path class="cls-1" d="M485,49.32H469.39V79.53c0,2.6.58,4.47,1.76,5.6A7.86,7.86,0,0,0,476.37,87,84.22,84.22,0,0,0,485,87V99.17q-15.62,1.89-22.41-2.71t-6.8-16.93V49.32H444.21V36.22h11.58V22.63l13.6-4V36.22H485Z"/><path class="cls-1" d="M503,73.49a17.29,17.29,0,0,0,6.92,11,22.27,22.27,0,0,0,13.22,3.84q10.83,0,16.24-7.8l11.21,6.54q-9.33,13.73-27.57,13.73-15.37,0-24.8-9.38T488.77,67.7q0-14.1,9.32-23.61T522,34.59q13.85,0,22.72,9.69a33.59,33.59,0,0,1,8.88,23.54,41.56,41.56,0,0,1-.51,5.67Zm-.13-11.08h37q-1.39-7.68-6.36-11.58a18.35,18.35,0,0,0-11.65-3.91,19.14,19.14,0,0,0-12.59,4.16A18.82,18.82,0,0,0,502.87,62.41Z"/><path class="cls-1" d="M572.74,53.51c0,2.08,1.16,3.71,3.49,4.91a51.93,51.93,0,0,0,8.37,3.31l10,3.08a17.27,17.27,0,0,1,8.56,5.85,16.6,16.6,0,0,1,3.44,10.76,16.7,16.7,0,0,1-7,14.22q-7,5.17-17.56,5.17a31.16,31.16,0,0,1-16-3.91,22.86,22.86,0,0,1-9.69-10.82l11.7-6.8q3.28,9.06,14,9.06t10.7-7c0-2-1.16-3.65-3.46-4.91A45.17,45.17,0,0,0,581,73l-10-3.09a17.84,17.84,0,0,1-8.58-5.67,15.48,15.48,0,0,1-3.47-10.38,17,17,0,0,1,6.61-14q6.62-5.28,16.43-5.28a27.69,27.69,0,0,1,13.91,3.46,23.57,23.57,0,0,1,9.38,9.63L593.77,54.1q-3.28-7.17-11.84-7.18a12,12,0,0,0-6.54,1.68A5.45,5.45,0,0,0,572.74,53.51Z"/><path class="cls-2" d="M192.06,36.22h13.6v63h-13.6V90.1q-7.68,10.71-22,10.71a29.51,29.51,0,0,1-22.16-9.64,32.75,32.75,0,0,1-9.19-23.47q0-14,9.19-23.55A29.65,29.65,0,0,1,170,34.59q14.35,0,22,10.57ZM157.94,82.11a20.53,20.53,0,0,0,28.46,0,19.68,19.68,0,0,0,5.66-14.41,19.68,19.68,0,0,0-5.66-14.42,20.53,20.53,0,0,0-28.46,0,19.68,19.68,0,0,0-5.66,14.42A19.68,19.68,0,0,0,157.94,82.11Z"/><path class="cls-2" d="M306.24,36.22v63h-13.6V49.32H271.75V99.17h-13.6V49.32h-21V99.17h-13.6V49.32H214V36.22h9.57V35q0-13,7.24-19.71T252,9.41V22.5Q237.13,21.12,237.13,35v1.25h21V33.71q0-25.56,28.45-25.56a64,64,0,0,1,14,1.64V22.25a93.84,93.84,0,0,0-14-1q-7.55,0-11.2,2.77t-3.65,9.7v2.51Z"/><path class="cls-2" d="M319.46,99.17V7.27h13.6v91.9Z"/><path class="cls-2" d="M359.18,24.2a8.52,8.52,0,0,1-12.22,0,8.33,8.33,0,0,1-2.58-6.1A8.46,8.46,0,0,1,346.9,12a8.67,8.67,0,0,1,12.34,0,8.58,8.58,0,0,1-.06,12.21Zm-12.91,75V36.22h13.6v63Z"/><path class="cls-2" d="M422.94,36.22h13.59v63H422.94V90.1q-7.68,10.71-22,10.71a29.48,29.48,0,0,1-22.16-9.64,32.71,32.71,0,0,1-9.19-23.47q0-14,9.19-23.55a29.62,29.62,0,0,1,22.16-9.56q14.34,0,22,10.57ZM388.82,82.11a20.52,20.52,0,0,0,28.45,0,19.64,19.64,0,0,0,5.67-14.41,19.65,19.65,0,0,0-5.67-14.42,20.52,20.52,0,0,0-28.45,0,19.65,19.65,0,0,0-5.67,14.42A19.64,19.64,0,0,0,388.82,82.11Z"/><path class="cls-2" d="M485,49.32H469.39V79.53c0,2.6.58,4.47,1.76,5.6A7.86,7.86,0,0,0,476.37,87,84.22,84.22,0,0,0,485,87V99.17q-15.62,1.89-22.41-2.71t-6.8-16.93V49.32H444.21V36.22h11.58V22.63l13.6-4V36.22H485Z"/><path class="cls-2" d="M503,73.49a17.29,17.29,0,0,0,6.92,11,22.27,22.27,0,0,0,13.22,3.84q10.83,0,16.24-7.8l11.21,6.54q-9.33,13.73-27.57,13.73-15.37,0-24.8-9.38T488.77,67.7q0-14.1,9.32-23.61T522,34.59q13.85,0,22.72,9.69a33.59,33.59,0,0,1,8.88,23.54,41.56,41.56,0,0,1-.51,5.67Zm-.13-11.08h37q-1.39-7.68-6.36-11.58a18.35,18.35,0,0,0-11.65-3.91,19.14,19.14,0,0,0-12.59,4.16A18.82,18.82,0,0,0,502.87,62.41Z"/><path class="cls-2" d="M572.74,53.51c0,2.08,1.16,3.71,3.49,4.91a51.93,51.93,0,0,0,8.37,3.31l10,3.08a17.27,17.27,0,0,1,8.56,5.85,16.6,16.6,0,0,1,3.44,10.76,16.7,16.7,0,0,1-7,14.22q-7,5.17-17.56,5.17a31.16,31.16,0,0,1-16-3.91,22.86,22.86,0,0,1-9.69-10.82l11.7-6.8q3.28,9.06,14,9.06t10.7-7c0-2-1.16-3.65-3.46-4.91A45.17,45.17,0,0,0,581,73l-10-3.09a17.84,17.84,0,0,1-8.58-5.67,15.48,15.48,0,0,1-3.47-10.38,17,17,0,0,1,6.61-14q6.62-5.28,16.43-5.28a27.69,27.69,0,0,1,13.91,3.46,23.57,23.57,0,0,1,9.38,9.63L593.77,54.1q-3.28-7.17-11.84-7.18a12,12,0,0,0-6.54,1.68A5.45,5.45,0,0,0,572.74,53.51Z"/><rect class="cls-3" y="31.71" width="33.15" height="76.74" rx="16.57"/><rect class="cls-4" x="66.84" y="31.71" width="33.15" height="76.74" rx="16.57"/><rect class="cls-5" x="33.42" width="33.15" height="93.14" rx="16.57"/><circle class="cls-2" cx="49.99" cy="16.66" r="16.66"/><rect class="cls-6" x="33.42" y="60.09" width="33.15" height="78.22" rx="16.57"/><circle class="cls-2" cx="49.99" cy="76.75" r="16.66"/><circle class="cls-2" cx="16.66" cy="48.19" r="16.66"/><circle class="cls-2" cx="83.32" cy="48.19" r="16.66"/></g></g></svg>